# xmcd
#
# Track frame offsets:
#	150
#	16200
#	35425
#	57732
#	76400
#	97287
#	117112
#	138075
#	155005
#	183777
#
# Disc length: 2676 seconds
#
# Revision: 1
# Processed by: cddbd v1.5.2PL0 Copyright (c) Steve Scherf et al.
# Submitted via: audiograbber 1.83.01
#
DISCID=7f0a720a
DTITLE=Tom Jones - Kiss
DYEAR=1997
DGENRE=Soul
TTITLE0=Kiss
TTITLE1=What You Been Missing
TTITLE2=Move Closer
TTITLE3=After The Tears
TTITLE4=Who's Gonna Take You Home Tonight
TTITLE5=(I Can't Get No)Satisfaction
TTITLE6=I'm Counting On You
TTITLE7=At This Moment
TTITLE8=Touch My Heart
TTITLE9='Til The End Of Time
EXTD=MCPS QED014. Made in the E.E.C. [EU]
EXTT0=
EXTT1=
EXTT2=
EXTT3=
EXTT4=
EXTT5=
EXTT6=
EXTT7=
EXTT8=
EXTT9=
PLAYORDER=
